<?xml version="1.0" encoding="UTF-8"?>
<svg xmlns="http://www.w3.org/2000/svg" id="Layer_1" data-name="Layer 1" viewBox="0 0 24 24">
  <path d="m8.5,11H2.5c-1.378,0-2.5,1.122-2.5,2.5v8c0,1.378,1.122,2.5,2.5,2.5h6c1.378,0,2.5-1.122,2.5-2.5v-8c0-1.378-1.122-2.5-2.5-2.5Zm1.5,10.5c0,.827-.673,1.5-1.5,1.5H2.5c-.827,0-1.5-.673-1.5-1.5v-8c0-.827.673-1.5,1.5-1.5h6c.827,0,1.5.673,1.5,1.5v8Zm-2-7c0,.276-.224.5-.5.5H3.5c-.276,0-.5-.224-.5-.5s.224-.5.5-.5h4c.276,0,.5.224.5.5Zm0,3c0,.276-.224.5-.5.5h-1c-.276,0-.5-.224-.5-.5s.224-.5.5-.5h1c.276,0,.5.224.5.5Zm-3,0c0,.276-.224.5-.5.5h-1c-.276,0-.5-.224-.5-.5s.224-.5.5-.5h1c.276,0,.5.224.5.5Zm3,3c0,.276-.224.5-.5.5h-1c-.276,0-.5-.224-.5-.5s.224-.5.5-.5h1c.276,0,.5.224.5.5Zm-3,0c0,.276-.224.5-.5.5h-1c-.276,0-.5-.224-.5-.5s.224-.5.5-.5h1c.276,0,.5.224.5.5ZM21,0H6c-1.654,0-3,1.346-3,3v5.5c0,.276.224.5.5.5s.5-.224.5-.5V3c0-1.103.897-2,2-2s2,.897,2,2,.897,2,2,2h10v14.5c0,1.93-1.57,3.5-3.5,3.5h-3c-.276,0-.5.224-.5.5s.224.5.5.5h3c2.481,0,4.5-2.019,4.5-4.5V5h1c1.103,0,2-.897,2-2,0-1.654-1.346-3-3-3Zm1,4h-12c-.551,0-1-.449-1-1,0-.768-.29-1.469-.766-2h12.766c1.103,0,2,.897,2,2,0,.551-.449,1-1,1Z"/>
</svg>
